<mxfile host="app.diagrams.net" agent="Mozilla/5.0 (Windows NT 10.0; Win64; x64; rv:132.0) Gecko/20100101 Firefox/132.0" version="24.8.3">
  <diagram name="第 1 页" id="Jj3UkCcf70LYA5oVNf9b">
    <mxGraphModel dx="1621" dy="386" grid="1" gridSize="10" guides="1" tooltips="1" connect="1" arrows="1" fold="1" page="1" pageScale="1" pageWidth="827" pageHeight="1169" math="0" shadow="0">
      <root>
        <mxCell id="0" />
        <mxCell id="1" parent="0" />
        <mxCell id="_R3BB7dawXil-FJ_AwLg-1" value="繁忙疏於管理的人" style="shape=umlActor;verticalLabelPosition=bottom;verticalAlign=top;html=1;" vertex="1" parent="1">
          <mxGeometry x="30" y="150" width="30" height="60" as="geometry" />
        </mxCell>
        <mxCell id="_R3BB7dawXil-FJ_AwLg-2" value="點擊查看日程表" style="ellipse;html=1;whiteSpace=wrap;" vertex="1" parent="1">
          <mxGeometry x="120" y="90" width="110" height="60" as="geometry" />
        </mxCell>
        <mxCell id="_R3BB7dawXil-FJ_AwLg-3" value="&amp;lt;&amp;lt;include&amp;gt;&amp;gt;" style="endArrow=open;startArrow=none;endFill=0;startFill=0;endSize=8;html=1;verticalAlign=bottom;dashed=1;labelBackgroundColor=none;rounded=0;entryX=0.955;entryY=0.217;entryDx=0;entryDy=0;entryPerimeter=0;" edge="1" parent="1" target="_R3BB7dawXil-FJ_AwLg-2">
          <mxGeometry width="160" relative="1" as="geometry">
            <mxPoint x="330" y="60" as="sourcePoint" />
            <mxPoint x="490" y="80" as="targetPoint" />
          </mxGeometry>
        </mxCell>
        <mxCell id="_R3BB7dawXil-FJ_AwLg-4" value="刪除事件" style="ellipse;html=1;whiteSpace=wrap;" vertex="1" parent="1">
          <mxGeometry x="330" y="20" width="110" height="60" as="geometry" />
        </mxCell>
        <mxCell id="_R3BB7dawXil-FJ_AwLg-5" value="Generalization" style="html=1;verticalAlign=bottom;labelBackgroundColor=none;endArrow=open;endFill=0;rounded=0;entryX=1;entryY=0.383;entryDx=0;entryDy=0;entryPerimeter=0;exitX=0;exitY=0.5;exitDx=0;exitDy=0;" edge="1" parent="1" source="_R3BB7dawXil-FJ_AwLg-6" target="_R3BB7dawXil-FJ_AwLg-4">
          <mxGeometry width="160" relative="1" as="geometry">
            <mxPoint x="600" y="43" as="sourcePoint" />
            <mxPoint x="610" y="70" as="targetPoint" />
          </mxGeometry>
        </mxCell>
        <mxCell id="_R3BB7dawXil-FJ_AwLg-6" value="&lt;div&gt;刪除完成事件&lt;/div&gt;" style="ellipse;html=1;whiteSpace=wrap;" vertex="1" parent="1">
          <mxGeometry x="580" y="10" width="110" height="60" as="geometry" />
        </mxCell>
        <mxCell id="_R3BB7dawXil-FJ_AwLg-7" value="" style="endArrow=none;startArrow=none;endFill=0;startFill=0;endSize=8;html=1;verticalAlign=bottom;labelBackgroundColor=none;strokeWidth=3;rounded=0;entryX=0;entryY=1;entryDx=0;entryDy=0;" edge="1" parent="1" target="_R3BB7dawXil-FJ_AwLg-2">
          <mxGeometry width="160" relative="1" as="geometry">
            <mxPoint x="80" y="180" as="sourcePoint" />
            <mxPoint x="420" y="190" as="targetPoint" />
          </mxGeometry>
        </mxCell>
        <mxCell id="_R3BB7dawXil-FJ_AwLg-14" value="" style="edgeStyle=orthogonalEdgeStyle;rounded=0;orthogonalLoop=1;jettySize=auto;html=1;" edge="1" parent="1" source="_R3BB7dawXil-FJ_AwLg-9" target="_R3BB7dawXil-FJ_AwLg-11">
          <mxGeometry relative="1" as="geometry" />
        </mxCell>
        <mxCell id="_R3BB7dawXil-FJ_AwLg-9" value="新增推薦事件" style="ellipse;html=1;whiteSpace=wrap;" vertex="1" parent="1">
          <mxGeometry x="140" y="370" width="110" height="60" as="geometry" />
        </mxCell>
        <mxCell id="_R3BB7dawXil-FJ_AwLg-11" value="新增事件" style="ellipse;html=1;whiteSpace=wrap;" vertex="1" parent="1">
          <mxGeometry x="140" y="240" width="110" height="60" as="geometry" />
        </mxCell>
        <mxCell id="_R3BB7dawXil-FJ_AwLg-19" value="" style="endArrow=none;startArrow=none;endFill=0;startFill=0;endSize=8;html=1;verticalAlign=bottom;labelBackgroundColor=none;strokeWidth=3;rounded=0;entryX=0;entryY=0.5;entryDx=0;entryDy=0;" edge="1" parent="1" target="_R3BB7dawXil-FJ_AwLg-11">
          <mxGeometry width="160" relative="1" as="geometry">
            <mxPoint x="80" y="220" as="sourcePoint" />
            <mxPoint x="146" y="151" as="targetPoint" />
          </mxGeometry>
        </mxCell>
        <mxCell id="_R3BB7dawXil-FJ_AwLg-23" value="&amp;lt;&amp;lt;include&amp;gt;&amp;gt;" style="endArrow=open;startArrow=none;endFill=0;startFill=0;endSize=8;html=1;verticalAlign=bottom;dashed=1;labelBackgroundColor=none;rounded=0;exitX=1;exitY=0.5;exitDx=0;exitDy=0;" edge="1" parent="1" source="_R3BB7dawXil-FJ_AwLg-11">
          <mxGeometry width="160" relative="1" as="geometry">
            <mxPoint x="355" y="200" as="sourcePoint" />
            <mxPoint x="280" y="200" as="targetPoint" />
          </mxGeometry>
        </mxCell>
        <mxCell id="_R3BB7dawXil-FJ_AwLg-24" value="&amp;lt;&amp;lt;include&amp;gt;&amp;gt;" style="endArrow=open;startArrow=none;endFill=0;startFill=0;endSize=8;html=1;verticalAlign=bottom;dashed=1;labelBackgroundColor=none;rounded=0;exitX=0.927;exitY=0.883;exitDx=0;exitDy=0;exitPerimeter=0;" edge="1" parent="1" source="_R3BB7dawXil-FJ_AwLg-2">
          <mxGeometry width="160" relative="1" as="geometry">
            <mxPoint x="240" y="160" as="sourcePoint" />
            <mxPoint x="280" y="190" as="targetPoint" />
          </mxGeometry>
        </mxCell>
        <mxCell id="_R3BB7dawXil-FJ_AwLg-25" value="登錄" style="ellipse;html=1;whiteSpace=wrap;" vertex="1" parent="1">
          <mxGeometry x="280" y="160" width="110" height="60" as="geometry" />
        </mxCell>
      </root>
    </mxGraphModel>
  </diagram>
</mxfile>
